<svg id="Capa_1" enable-background="new 0 0 510 510" height="30" viewBox="0 0 510 510" width="30" xmlns="http://www.w3.org/2000/svg"><g><path d="m272 411c0 8.284 6.716 15 15 15h144c8.284 0 15-6.716 15-15s-6.716-15-15-15h-144c-8.284 0-15 6.716-15 15z"/><path d="m207 332h-49v-49c0-8.284-6.716-15-15-15s-15 6.716-15 15v49h-49c-8.284 0-15 6.716-15 15s6.716 15 15 15h49v49c0 8.284 6.716 15 15 15s15-6.716 15-15v-49h49c8.284 0 15-6.716 15-15s-6.716-15-15-15z"/><path d="m287 362h80c8.284 0 15-6.716 15-15s-6.716-15-15-15h-80c-8.284 0-15 6.716-15 15s6.716 15 15 15z"/><path d="m287 298h80c8.284 0 15-6.716 15-15s-6.716-15-15-15h-80c-8.284 0-15 6.716-15 15s6.716 15 15 15z"/><path d="m495 156h-106.819c-6.749-27.518-31.612-48-61.181-48h-17v-73c0-8.284-6.716-15-15-15h-80c-8.284 0-15 6.716-15 15v73h-17c-29.569 0-54.433 20.482-61.181 48h-106.819c-8.284 0-15 6.716-15 15v304c0 8.284 6.716 15 15 15h480c8.284 0 15-6.716 15-15v-304c0-8.284-6.716-15-15-15zm-265-106h50v58h-50zm-47 88h144c18.196 0 33 14.804 33 33s-14.804 33-33 33h-144c-18.196 0-33-14.804-33-33s14.804-33 33-33zm297 322h-450v-274h91.819c6.749 27.518 31.612 48 61.181 48h144c29.569 0 54.433-20.482 61.181-48h91.819z"/></g></svg>